<svg xmlns="http://www.w3.org/2000/svg" viewBox="0 0 120 120" role="img" aria-label="STRESS EN STRASS logo">
<rect width="120" height="120" fill="#030303"/>
<path d="M60 7 76 36 112 30 88 57 108 88 72 79 60 113 48 79 12 88 32 57 8 30 44 36Z" fill="none" stroke="#e9e2d9" stroke-width="3"/>
<path d="M60 18 68 44 94 42 73 60 84 86 60 72 36 86 47 60 26 42 52 44Z" fill="none" stroke="#8b001e" stroke-width="3"/>
<path d="M60 28V94M28 60h64M42 42l36 36M78 42 42 78" stroke="#e9e2d9" stroke-width="2" opacity=".8"/>
</svg>
