<svg width="128" height="128" viewBox="0 0 128 128" fill="none" xmlns="http://www.w3.org/2000/svg">
<rect width="128" height="128" fill="#050505"/>
<path d="M64 10L77 42L113 25L91 58L120 64L91 70L113 103L77 86L64 118L51 86L15 103L37 70L8 64L37 58L15 25L51 42L64 10Z" stroke="#EDE7DF" stroke-width="5"/>
<path d="M64 30L72 53L96 42L82 63L101 64L82 65L96 86L72 75L64 98L56 75L32 86L46 65L27 64L46 63L32 42L56 53L64 30Z" fill="#8D0D17"/>
<circle cx="64" cy="64" r="8" fill="#050505" stroke="#EDE7DF" stroke-width="3"/>
</svg>
