<svg xmlns="http://www.w3.org/2000/svg" viewBox="0 0 120 120" role="img" aria-label="STRESS EN STRASS logo">
  <rect width="120" height="120" fill="#030303"/>
  <path d="M60 5 75 35 112 23 88 55 115 60 88 65 112 97 75 85 60 115 45 85 8 97 32 65 5 60 32 55 8 23 45 35Z" fill="none" stroke="#f1eee7" stroke-width="4"/>
  <path d="M60 20 70 49 100 40 78 60 100 80 70 71 60 100 50 71 20 80 42 60 20 40 50 49Z" fill="none" stroke="#8a0f18" stroke-width="3"/>
  <path d="M60 39 73 60 60 81 47 60Z" fill="#f1eee7"/>
</svg>
